<svg width="324" height="324" viewBox="0 0 324 324" fill="none" xmlns="http://www.w3.org/2000/svg">
<path d="M7.95559 201.914C9.73242 203.145 11.607 204.229 13.5606 205.154C15.8988 206.347 19.8083 208.345 20.0837 209.749C20.4273 211.593 20.2072 213.497 19.4519 215.214C18.6473 216.942 17.7995 218.427 17.0759 219.712C15.0942 223.2 11.7895 229.048 16.779 233.131C17.9453 234.211 19.9595 235.771 21.8008 237.18C20.4477 239.543 19.8345 242.258 20.0405 244.972C20.3241 247.097 21.4706 249.011 23.2102 250.264C24.4251 251.128 25.7265 251.884 26.9901 252.613C30.1652 254.422 31.4072 255.265 31.85 256.933C32.1404 259.13 31.9375 261.364 31.256 263.472C30.9374 264.876 30.6296 266.275 30.4298 267.711C29.8946 272.636 30.5196 277.618 32.2549 282.258C34.6784 290.857 42.4543 296.849 51.3866 297C52.8691 296.995 54.3472 296.839 55.7983 296.536C71.2247 292.88 86.4257 288.331 101.325 282.912C113.485 290.05 121.174 311.758 123.178 319.906C123.778 322.313 125.941 324.001 128.421 323.999L263.957 323.621C265.675 323.618 267.289 322.798 268.304 321.412C269.318 320.026 269.613 318.24 269.098 316.602C267.763 312.943 265.921 309.49 263.628 306.342C262.331 304.479 261.162 302.531 260.129 300.51C257.687 295.558 255.648 290.416 254.032 285.137C250.952 274.7 248.814 264.009 247.644 253.191C245.749 237.036 248.198 220.667 254.74 205.775C258.732 197.515 263.652 189.738 269.406 182.593C272.646 178.219 276.01 173.689 279.028 168.932C284.218 160.869 287.981 151.974 290.152 142.634C290.773 139.751 288.967 136.903 286.094 136.237C283.221 135.57 280.345 137.332 279.633 140.194C277.735 148.345 274.447 156.108 269.913 163.143C267.111 167.576 263.871 171.939 260.734 176.162C254.485 183.959 249.153 192.447 244.842 201.46C237.529 218.116 234.796 236.422 236.926 254.487C238.171 265.96 240.45 277.297 243.735 288.36C245.509 294.169 247.75 299.825 250.436 305.273C251.667 307.706 253.066 310.052 254.621 312.292L254.983 312.832L132.503 313.2C128.914 300.391 122.406 288.588 113.49 278.716L118.35 277.026C121.979 275.757 124.717 274.801 126.131 274.326C149.254 266.955 160.82 256.426 160.502 243.007C160.487 241.574 159.892 240.207 158.853 239.22C157.815 238.232 156.421 237.707 154.988 237.764C152.008 237.834 149.649 240.307 149.718 243.288C149.848 248.812 145.296 256.901 122.848 264.05C121.38 264.52 118.528 265.508 114.797 266.82C110.785 268.219 105.698 270.001 100.083 271.907H100.045C84.8588 277.475 69.3643 282.163 53.6384 285.947C48.6088 286.892 43.7196 283.733 42.5147 278.759C41.3533 275.711 40.8973 272.44 41.1809 269.191C41.3375 268.111 41.5913 266.977 41.8397 265.875C42.9889 262.106 43.1745 258.109 42.3797 254.249C40.8115 249.305 37.1746 245.284 32.4115 243.228L31.2506 242.564C31.8326 241.382 32.5308 240.26 33.3349 239.216C34.2396 238.067 34.6395 236.6 34.4431 235.151C34.2467 233.701 33.4707 232.394 32.2927 231.527C31.0022 230.576 27.9729 228.287 25.7049 226.483C25.9641 226.014 26.2449 225.495 26.5203 225.031C27.3681 223.54 28.34 221.791 29.2796 219.809C30.9909 216.027 31.4925 211.808 30.716 207.73C29.4254 201.142 23.113 197.913 18.5069 195.558C16.9551 194.82 15.4669 193.955 14.0574 192.972C12.9002 192.197 11.8158 191.319 10.8175 190.348C10.8175 189.527 11.6977 187.545 15.807 182.539C25.4696 170.09 33.7529 156.628 40.5113 142.391C41.78 140.16 42.4948 137.656 42.5957 135.091C42.0301 129.658 39.1414 124.735 34.6741 121.591C32.4871 119.582 30.419 117.692 30.1868 116.099C30.2363 114.776 30.533 113.474 31.0616 112.26C31.9417 109.949 32.9623 107.681 33.9775 105.408C36.2545 100.718 38.0633 95.8141 39.3774 90.7687C40.6147 84.717 42.238 78.7505 44.2372 72.906C48.4934 61.157 55.084 50.3913 63.6119 41.2575C73.9364 30.3227 90.19 22.5901 112.005 18.2595C128.692 14.5959 145.625 12.1559 162.667 10.9589C168.401 10.6634 174.149 10.7861 179.865 11.326C181.791 11.5055 183.666 10.6441 184.784 9.06643C185.902 7.48875 186.093 5.43446 185.286 3.67737C184.478 1.92028 182.795 0.727349 180.87 0.547935C174.63 -0.0237944 168.357 -0.148309 162.1 0.175345C144.531 1.39439 127.075 3.89943 109.872 7.67035C85.5245 12.5302 67.8292 21.0674 55.7551 33.8326C46.2207 44.025 38.851 56.044 34.0909 69.1639C31.9026 75.5486 30.126 82.0669 28.772 88.679C27.6179 92.9193 26.0667 97.0415 24.139 100.991C23.059 103.448 21.9466 105.905 20.9746 108.459C19.7457 111.314 19.2412 114.428 19.5059 117.525C20.6229 122.345 23.4245 126.608 27.4059 129.545C30.0518 131.97 31.796 133.676 31.8176 135.166C31.621 135.986 31.3121 136.775 30.8996 137.51C24.4346 151.126 16.5116 164.001 7.26981 175.908C3.36031 180.676 -0.743582 186.233 0.114996 191.795C1.26487 196.083 4.09014 199.73 7.95559 201.914Z" fill="#F6EDED"/>
<path d="M64.4799 80.409C67.7318 71.3938 72.7717 63.1287 79.2971 56.1097C86.4952 48.4905 98.9418 42.88 116.297 39.4295C119.223 38.8495 121.124 36.0076 120.544 33.082C119.964 30.1564 117.122 28.2549 114.196 28.835C94.6003 32.7337 80.2205 39.4079 71.4511 48.6741C63.916 56.7615 58.0968 66.2912 54.3444 76.6885C52.5266 82.083 51.046 87.5852 49.9111 93.1635L60.457 95.5016C61.4921 90.3941 62.8355 85.354 64.4799 80.409Z" fill="#F6EDED"/>
<path d="M177.45 30.2497L174.21 46.4061C171.087 47.4317 168.047 48.6954 165.117 50.186L151.407 41.0063C147.123 38.2008 141.458 38.7894 137.842 42.4156L128.879 51.374C125.181 55.004 124.583 60.7486 127.453 65.0626L136.59 78.708C135.099 81.6381 133.835 84.6781 132.81 87.8014L116.675 91.0413C111.633 92.0597 108.009 96.4924 108.013 101.636V114.379C108.01 119.514 111.622 123.942 116.653 124.969L132.81 128.209C133.835 131.332 135.099 134.372 136.59 137.302L127.41 151.012C124.604 155.296 125.193 160.961 128.819 164.577L137.783 173.54C141.419 177.221 147.151 177.816 151.466 174.96L165.112 165.824C168.042 167.314 171.082 168.578 174.205 169.604L177.445 185.739C178.461 190.782 182.894 194.409 188.039 194.405H200.783C205.918 194.409 210.345 190.797 211.372 185.766L214.612 169.609C217.735 168.584 220.775 167.32 223.705 165.829L237.416 175.009C241.699 177.814 247.365 177.226 250.98 173.6L259.938 164.641C263.636 161.011 264.234 155.267 261.364 150.953L252.227 137.307C253.718 134.377 254.982 131.337 256.007 128.214L272.142 124.974C275.347 124.326 278.083 122.256 279.578 119.347L287.715 124.801C289.285 125.79 291.103 126.316 292.959 126.319C295.547 126.319 298.029 125.287 299.854 123.451L307.036 116.269C310.302 112.987 310.827 107.867 308.294 103.99L301.328 93.5684C302.339 91.5376 303.212 89.4414 303.942 87.2938L316.162 84.8585C320.734 83.9603 324.025 79.9439 324.008 75.2845V65.1328C324.024 60.4908 320.756 56.4851 316.205 55.5697L303.931 53.1235C303.207 50.9754 302.337 48.879 301.328 46.8489L308.402 36.303C310.853 32.4405 310.292 27.3937 307.052 24.1641L299.87 16.9823C296.589 13.7143 291.467 13.1896 287.591 15.7241L277.169 22.6899C275.139 21.6796 273.042 20.8064 270.895 20.0764L268.454 7.85655C267.556 3.28652 263.543 -0.00434891 258.885 0.0105593H248.734C244.092 -0.00582151 240.086 3.26251 239.171 7.81335L236.724 20.0872C234.576 20.8168 232.48 21.6918 230.45 22.7062L219.904 15.6323C216.04 13.1854 210.996 13.7463 207.765 16.9823L202.905 21.8422C202.207 21.6966 201.496 21.6188 200.783 21.61H188.039C182.905 21.6064 178.477 25.2187 177.45 30.2497ZM260.003 51.4172L257.482 48.8954C266.841 50.1483 274.286 57.3654 275.828 66.6817C277.371 75.9979 272.65 85.2293 264.194 89.4322L255.997 87.8122C254.971 84.6889 253.707 81.6489 252.217 78.7188L261.396 65.0086C264.212 60.7262 263.63 55.0547 260.003 51.4334V51.4172ZM214.806 25.1955L227.151 33.4897C228.882 34.6504 231.126 34.7114 232.918 33.6463C236.009 31.827 239.333 30.4373 242.799 29.5154C244.78 28.9805 246.286 27.3695 246.687 25.3575L249.587 10.8103H258.032L260.932 25.3899C261.333 27.4019 262.839 29.0129 264.82 29.5478C268.286 30.4697 271.611 31.8594 274.702 33.6787C276.499 34.7341 278.744 34.6606 280.469 33.4897L292.813 25.2063L298.807 31.2001L290.529 43.5496C289.368 45.2806 289.307 47.5252 290.372 49.3166C292.191 52.4077 293.581 55.7322 294.503 59.1984C295.038 61.179 296.649 62.6854 298.661 63.0863L313.24 65.986V74.4314L298.688 77.3311C296.676 77.732 295.065 79.2384 294.53 81.219C293.608 84.6852 292.218 88.0096 290.399 91.1007C289.334 92.8922 289.395 95.1367 290.556 96.8678L298.839 109.212L292.845 115.206L280.809 107.154V101.636C280.81 98.4742 279.429 95.4702 277.029 93.4118C286.536 84.2537 289.518 70.2351 284.564 58C279.609 45.7649 267.712 37.772 254.512 37.8095C251.247 37.8301 248.005 38.3621 244.905 39.3863C242.267 39.0019 239.579 39.5933 237.345 41.0495L223.711 50.186C220.781 48.6954 217.741 47.4317 214.617 46.4061L211.378 30.2713C211.282 29.8387 211.158 29.413 211.005 28.997L214.806 25.1955ZM184.151 51.725L188.039 32.4097H200.783L204.666 51.7412C205.069 53.7476 206.573 55.3534 208.548 55.8883C213.01 57.091 217.295 58.8699 221.297 61.1801C223.08 62.2145 225.297 62.1433 227.01 60.9965L243.35 50.0672L252.4 59.0688L241.439 75.4249C240.292 77.1381 240.221 79.3547 241.255 81.138C243.565 85.1398 245.344 89.4255 246.547 93.887C247.082 95.8625 248.688 97.3658 250.694 97.7695L270.009 101.63V114.379L250.678 118.262C248.671 118.666 247.066 120.169 246.531 122.144C245.328 126.606 243.549 130.892 241.239 134.894C240.204 136.677 240.276 138.893 241.422 140.607L252.352 156.947L243.35 165.997L226.994 155.035C225.281 153.888 223.064 153.817 221.281 154.851C217.279 157.162 212.993 158.941 208.532 160.143C206.556 160.678 205.053 162.284 204.649 164.29L200.783 183.606H188.039L184.157 164.274C183.753 162.268 182.25 160.662 180.274 160.127C175.813 158.924 171.527 157.145 167.525 154.835C165.742 153.801 163.525 153.872 161.812 155.019L145.472 165.948L136.422 156.947L147.384 140.59C148.531 138.877 148.602 136.661 147.567 134.877C145.257 130.876 143.478 126.59 142.276 122.128C141.741 120.153 140.135 118.649 138.128 118.246L118.813 114.379V101.636L138.145 97.7533C140.151 97.3496 141.757 95.8463 142.292 93.8708C143.495 89.4093 145.273 85.1236 147.584 81.1218C148.618 79.3385 148.547 77.1219 147.4 75.4087L136.471 59.0688L145.472 50.0186L161.828 60.9803C163.542 62.1271 165.758 62.1983 167.542 61.1639C171.543 58.8537 175.829 57.0748 180.291 55.8721C182.258 55.3302 183.751 53.7257 184.151 51.725Z" fill="#F6EDED"/>
<path d="M194.411 145.807C215.287 145.807 232.21 128.884 232.21 108.008C232.21 87.1319 215.287 70.2087 194.411 70.2087C173.535 70.2087 156.612 87.1319 156.612 108.008C156.636 128.874 173.545 145.783 194.411 145.807ZM194.411 81.0084C209.322 81.0084 221.41 93.0964 221.41 108.008C221.41 122.919 209.322 135.007 194.411 135.007C179.5 135.007 167.412 122.919 167.412 108.008C167.43 93.1038 179.507 81.0262 194.411 81.0084Z" fill="#F6EDED"/>
<path d="M194.411 113.408C197.394 113.408 199.811 110.99 199.811 108.008C199.811 105.025 197.394 102.608 194.411 102.608C191.429 102.608 189.011 105.025 189.011 108.008C189.011 110.99 191.429 113.408 194.411 113.408Z" fill="#F6EDED"/>
<path d="M48.6152 118.807C51.5975 118.807 54.0151 116.39 54.0151 113.408C54.0151 110.425 51.5975 108.008 48.6152 108.008C45.6329 108.008 43.2153 110.425 43.2153 113.408C43.2153 116.39 45.6329 118.807 48.6152 118.807Z" fill="#F6EDED"/>
</svg>
