<svg width="157" height="115" viewBox="0 0 157 115" fill="none" xmlns="http://www.w3.org/2000/svg">
<ellipse cx="78.0722" cy="57.086" rx="70" ry="37" transform="rotate(-18.2768 78.0722 57.086)" fill="#FBF0F0"/>
<path d="M6.872 70L11.912 44.8H15.512L10.472 70H6.872ZM31.0845 50.74C32.7645 50.74 34.1685 51.076 35.2965 51.748C36.4245 52.42 37.2045 53.404 37.6365 54.7C38.0925 55.972 38.1405 57.508 37.7805 59.308L35.6565 70H32.2005L34.3245 59.308C34.6845 57.58 34.5165 56.236 33.8205 55.276C33.1245 54.316 31.8765 53.836 30.0765 53.836C28.2285 53.836 26.6925 54.34 25.4685 55.348C24.2445 56.332 23.4285 57.856 23.0205 59.92L21.0045 70H17.5485L21.3285 50.92H24.6405L23.5605 56.392L22.9125 54.916C23.8245 53.476 24.9765 52.42 26.3685 51.748C27.7845 51.076 29.3565 50.74 31.0845 50.74ZM48.6044 70.216C47.4524 70.216 46.4564 69.964 45.6164 69.46C44.8004 68.956 44.2124 68.236 43.8524 67.3C43.5164 66.364 43.4684 65.26 43.7084 63.988L47.1644 46.744H50.6204L47.1644 63.916C46.9964 64.948 47.0924 65.776 47.4524 66.4C47.8364 67 48.5444 67.3 49.5764 67.3C50.0564 67.3 50.5364 67.228 51.0164 67.084C51.4964 66.916 51.9284 66.688 52.3124 66.4L53.0324 69.028C52.3844 69.484 51.6644 69.796 50.8724 69.964C50.1044 70.132 49.3484 70.216 48.6044 70.216ZM42.5204 53.764L43.0604 50.92H55.2644L54.6884 53.764H42.5204ZM65.4339 70.216C63.5619 70.216 61.9419 69.88 60.5739 69.208C59.2059 68.512 58.1499 67.552 57.4059 66.328C56.6619 65.08 56.2899 63.616 56.2899 61.936C56.2899 59.776 56.7579 57.856 57.6939 56.176C58.6299 54.496 59.9019 53.176 61.5099 52.216C63.1419 51.232 64.9899 50.74 67.0539 50.74C68.7819 50.74 70.2819 51.076 71.5539 51.748C72.8259 52.396 73.8099 53.332 74.5059 54.556C75.2259 55.78 75.5859 57.256 75.5859 58.984C75.5859 59.416 75.5619 59.86 75.5139 60.316C75.4659 60.748 75.4059 61.156 75.3339 61.54H58.8099L59.2419 59.02H73.6779L72.2739 59.884C72.4899 58.54 72.3939 57.412 71.9859 56.5C71.5779 55.564 70.9299 54.856 70.0419 54.376C69.1779 53.872 68.1339 53.62 66.9099 53.62C65.4699 53.62 64.1979 53.968 63.0939 54.664C62.0139 55.336 61.1739 56.284 60.5739 57.508C59.9739 58.708 59.6739 60.124 59.6739 61.756C59.6739 63.484 60.1659 64.828 61.1499 65.788C62.1579 66.724 63.6819 67.192 65.7219 67.192C66.9219 67.192 68.0379 67 69.0699 66.616C70.1019 66.208 70.9539 65.668 71.6259 64.996L73.1019 67.48C72.1899 68.368 71.0499 69.052 69.6819 69.532C68.3139 69.988 66.8979 70.216 65.4339 70.216ZM78.3337 70L83.6617 43.288H87.1177L81.7897 70H78.3337ZM88.3884 70L93.7164 43.288H97.1724L91.8444 70H88.3884ZM105.067 55.672H118.027L117.415 58.732H104.455L105.067 55.672ZM103.123 66.868H117.847L117.235 70H98.9111L103.951 44.8H121.735L121.123 47.932H106.903L103.123 66.868ZM123.028 70L128.068 44.8H137.932C140.476 44.8 142.648 45.232 144.448 46.096C146.248 46.936 147.616 48.124 148.552 49.66C149.512 51.196 149.992 53.02 149.992 55.132C149.992 57.34 149.62 59.368 148.876 61.216C148.132 63.04 147.064 64.612 145.672 65.932C144.304 67.228 142.66 68.236 140.74 68.956C138.82 69.652 136.672 70 134.296 70H123.028ZM127.24 66.868H134.404C136.9 66.868 139.036 66.376 140.812 65.392C142.588 64.384 143.956 63.016 144.916 61.288C145.876 59.536 146.356 57.556 146.356 55.348C146.356 53.836 146.032 52.528 145.384 51.424C144.736 50.296 143.752 49.432 142.432 48.832C141.136 48.232 139.516 47.932 137.572 47.932H131.02L127.24 66.868Z" fill="black"/>
</svg>
